<?xml version="1.0" standalone="no"?><svg xmlns="http://www.w3.org/2000/svg" viewBox="0 0 1440 320"><path fill="#0099ff" fill-opacity="1" d="M0,128L24,138.7C48,149,96,171,144,197.3C192,224,240,256,288,250.7C336,245,384,203,432,160C480,117,528,75,576,64C624,53,672,75,720,122.7C768,171,816,245,864,240C912,235,960,149,1008,144C1056,139,1104,213,1152,202.7C1200,192,1248,96,1296,58.7C1344,21,1392,43,1416,53.3L1440,64L1440,0L1416,0C1392,0,1344,0,1296,0C1248,0,1200,0,1152,0C1104,0,1056,0,1008,0C960,0,912,0,864,0C816,0,768,0,720,0C672,0,624,0,576,0C528,0,480,0,432,0C384,0,336,0,288,0C240,0,192,0,144,0C96,0,48,0,24,0L0,0Z"></path></svg>