<?xml version="1.0" standalone="no"?><svg xmlns="http://www.w3.org/2000/svg" viewBox="0 0 1440 320"><path fill="#0099ff" fill-opacity="1" d="M0,64L10.9,106.7C21.8,149,44,235,65,245.3C87.3,256,109,192,131,160C152.7,128,175,128,196,133.3C218.2,139,240,149,262,170.7C283.6,192,305,224,327,213.3C349.1,203,371,149,393,106.7C414.5,64,436,32,458,26.7C480,21,502,43,524,80C545.5,117,567,171,589,186.7C610.9,203,633,181,655,149.3C676.4,117,698,75,720,96C741.8,117,764,203,785,213.3C807.3,224,829,160,851,138.7C872.7,117,895,139,916,170.7C938.2,203,960,245,982,250.7C1003.6,256,1025,224,1047,208C1069.1,192,1091,192,1113,165.3C1134.5,139,1156,85,1178,64C1200,43,1222,53,1244,85.3C1265.5,117,1287,171,1309,208C1330.9,245,1353,267,1375,261.3C1396.4,256,1418,224,1429,208L1440,192L1440,0L1429.1,0C1418.2,0,1396,0,1375,0C1352.7,0,1331,0,1309,0C1287.3,0,1265,0,1244,0C1221.8,0,1200,0,1178,0C1156.4,0,1135,0,1113,0C1090.9,0,1069,0,1047,0C1025.5,0,1004,0,982,0C960,0,938,0,916,0C894.5,0,873,0,851,0C829.1,0,807,0,785,0C763.6,0,742,0,720,0C698.2,0,676,0,655,0C632.7,0,611,0,589,0C567.3,0,545,0,524,0C501.8,0,480,0,458,0C436.4,0,415,0,393,0C370.9,0,349,0,327,0C305.5,0,284,0,262,0C240,0,218,0,196,0C174.5,0,153,0,131,0C109.1,0,87,0,65,0C43.6,0,22,0,11,0L0,0Z"></path></svg>